<svg xmlns="http://www.w3.org/2000/svg" xmlns:xlink="http://www.w3.org/1999/xlink" viewBox="0 0 1300.01 405.53"><defs><linearGradient id="linear-gradient" x1="243.76" y1="-38.84" x2="441.41" y2="206.8" gradientUnits="userSpaceOnUse"><stop offset="0" stop-color="blue"/><stop offset="1" stop-color="#0071bc"/></linearGradient><linearGradient id="linear-gradient-2" x1="74.39" y1="97.44" x2="272.03" y2="343.09" xlink:href="#linear-gradient"/><linearGradient id="linear-gradient-3" x1="21.88" y1="139.69" x2="219.52" y2="385.34" xlink:href="#linear-gradient"/><linearGradient id="linear-gradient-4" x1="41.9" y1="123.58" x2="239.55" y2="369.23" xlink:href="#linear-gradient"/><linearGradient id="linear-gradient-5" x1="142.41" y1="42.71" x2="340.05" y2="288.36" xlink:href="#linear-gradient"/><linearGradient id="linear-gradient-6" x1="83.9" y1="89.78" x2="281.55" y2="335.43" xlink:href="#linear-gradient"/><linearGradient id="linear-gradient-7" x1="96.92" y1="79.3" x2="294.57" y2="324.95" xlink:href="#linear-gradient"/></defs><title>newLogo</title><g id="Layer_2" data-name="Layer 2"><g id="Layer_1-2" data-name="Layer 1"><circle cx="312.18" cy="46.19" r="20.68" fill="url(#linear-gradient)"/><circle cx="95.56" cy="123.75" r="20.68" fill="url(#linear-gradient-2)"/><circle cx="68.08" cy="197.11" r="20.68" fill="url(#linear-gradient-3)"/><rect x="134.17" y="180.25" width="20.08" height="140.96" fill="url(#linear-gradient-4)"/><path d="M202.77,58a144.34,144.34,0,0,0-105,45.16,143.22,143.22,0,0,0-12.22,14.7l16.25,11.79A123.62,123.62,0,0,1,114.29,115a124.65,124.65,0,0,1,209.13,56.37H344.1A144.88,144.88,0,0,0,202.77,58Z" fill="url(#linear-gradient-5)"/><path d="M58.59,215.49h0c-.37-4.21-.56-8.44-.56-12.72H78.11q0,6.12.59,12.1h0a124.74,124.74,0,0,0,55.47,91.93h0a125,125,0,0,0,20.08,10.79,123.61,123.61,0,0,0,33.55,8.93V151.14h20.08V327.31a123.49,123.49,0,0,0,33.73-6.09h-.19V114.37h20.09V312.68a125.13,125.13,0,0,0,61.9-78.5H344.1A144.77,144.77,0,0,1,100.42,305.1,143.63,143.63,0,0,1,58.59,215.49Z" fill="url(#linear-gradient-6)"/><path d="M405.54,192.72v10a202.82,202.82,0,0,1-389.6,78.93A202.83,202.83,0,0,1,304.13,27.12h0q4.56,2.65,9,5.54L302.21,49.49c-3.44-2.23-6.93-4.34-10.5-6.33a182.06,182.06,0,0,0-88.94-23.08C102,20.08,20.08,102,20.08,202.76s82,182.69,182.69,182.69c97.36,0,177.18-76.56,182.42-172.65H292.33V192.72Z" fill="url(#linear-gradient-7)"/><path d="M555.12,156.35H580.9v49.47c-13.41,10.1-31.87,15.5-49.29,15.5-38.32,0-66.53-26.3-66.53-63s28.21-63.05,67.05-63.05c21.43,0,39.19,7.32,51,21.08L565.05,133c-8.88-9.4-19.16-13.75-31.52-13.75-23.69,0-39.89,15.84-39.89,39,0,22.81,16.2,39,39.54,39a44.79,44.79,0,0,0,21.94-5.22Z"/><path d="M715.35,196.58v22.65H621V97.31h92.13V120H649v26.48h56.6v21.94H649v28.21Z"/><path d="M863.56,97.31V219.23H840.4l-60.78-74v74H751.75V97.31h23.34l60.61,74v-74Z"/><path d="M1018.22,97.31V219.23H995.06l-60.79-74v74H906.41V97.31h23.33l60.61,74v-74Z"/><path d="M1155.46,196.58v22.65h-94.4V97.31h92.13V120H1089.1v26.48h56.61v21.94H1089.1v28.21Z"/><path d="M1267.44,219.23,1238,176.9l-28.91,42.33h-32.39l45.1-62L1179,97.31h32l28,39.54,27.51-39.54h30.48l-42.49,58.87,45.45,63Z"/><path d="M474.68,265.93v15.73h25v8.12h-25v19.79h-9.6V257.88h37.74v8.05Z" fill="#999"/><path d="M543.29,283.72c0-15.28,11.82-26.58,27.84-26.58S599,268.36,599,283.72s-11.82,26.59-27.85,26.59S543.29,299,543.29,283.72Zm46,0c0-10.56-7.75-18.16-18.17-18.16S553,273.16,553,283.72s7.75,18.17,18.16,18.17S589.3,294.28,589.3,283.72Z" fill="#999"/><path d="M644.18,287.05V257.88h9.6v28.8c0,10.63,4.8,15.21,13.14,15.21S680,297.31,680,286.68v-28.8h9.45v29.17c0,15.06-8.49,23.26-22.6,23.26S644.18,302.11,644.18,287.05Z" fill="#999"/><path d="M784.28,257.88v51.69h-7.9l-28.51-35v35h-9.52V257.88h7.9l28.5,35v-35Z" fill="#999"/><path d="M833.62,257.88h22.6c16.76,0,28.21,10.33,28.21,25.84S873,309.57,856.22,309.57h-22.6Zm22.15,43.57c11.52,0,19-7,19-17.73s-7.46-17.72-19-17.72H843.22v35.45Z" fill="#999"/><path d="M962.86,297.61H937l-5.1,12H922l23.26-51.69h9.45l23.34,51.69H968Zm-3.17-7.54-9.75-22.59-9.67,22.59Z" fill="#999"/><path d="M1028,266h-17.14v-8.12h43.87V266h-17.13v43.57H1028Z" fill="#999"/><path d="M1097.43,257.88h9.6v51.69h-9.6Z" fill="#999"/><path d="M1152.75,283.72c0-15.28,11.82-26.58,27.84-26.58s27.84,11.22,27.84,26.58-11.81,26.59-27.84,26.59S1152.75,299,1152.75,283.72Zm46,0c0-10.56-7.76-18.16-18.17-18.16s-18.17,7.6-18.17,18.16,7.76,18.17,18.17,18.17S1198.76,294.28,1198.76,283.72Z" fill="#999"/><path d="M1300,257.88v51.69h-7.9l-28.5-35v35h-9.53V257.88h7.9l28.51,35v-35Z" fill="#999"/></g></g></svg>